<?xml version="1.0" standalone="no"?>
<!DOCTYPE svg PUBLIC "-//W3C//DTD SVG 20010904//EN"
 "http://www.w3.org/TR/2001/REC-SVG-20010904/DTD/svg10.dtd">
<svg version="1.0" xmlns="http://www.w3.org/2000/svg"
 width="888.000000pt" height="291.000000pt" viewBox="0 0 888.000000 291.000000"
 preserveAspectRatio="xMidYMid meet">
<metadata>
Created by potrace 1.10, written by Peter Selinger 2001-2011
</metadata>
<g transform="translate(0.000000,291.000000) scale(0.100000,-0.100000)"
fill="#0008ff" stroke="none">
<path d="M1175 2383 c-142 -9 -209 -24 -260 -58 -27 -19 -57 -49 -67 -67 -23
-48 -39 -161 -45 -333 -5 -133 -8 -153 -26 -172 -19 -22 -67 -32 -67 -15 0 6
-37 25 -138 68 -113 48 -286 -27 -354 -153 -13 -24 -18 -56 -18 -122 0 -66 5
-98 18 -122 16 -30 77 -99 87 -99 3 0 24 -13 47 -30 38 -28 48 -30 122 -30 55
1 87 5 100 15 11 8 28 15 39 15 10 0 28 5 40 12 52 29 84 35 115 23 l29 -13 7
-158 c9 -220 23 -293 63 -338 17 -20 36 -36 41 -36 5 0 15 -7 22 -15 7 -8 37
-22 67 -31 47 -14 138 -16 666 -16 654 1 692 3 753 51 40 32 90 103 97 139 24
122 30 1018 8 1216 -11 102 -14 111 -51 160 -21 28 -54 59 -72 68 -43 22 -145
37 -312 45 -132 6 -134 6 -146 -17 -14 -27 -6 -99 15 -126 21 -27 21 -177 0
-194 -8 -7 -15 -20 -15 -29 0 -36 -113 -134 -167 -146 -18 -3 -35 -11 -38 -16
-9 -14 -94 -11 -123 5 -15 8 -38 17 -52 20 -26 5 -100 65 -100 79 0 5 -15 26
-32 49 -32 39 -33 43 -33 132 0 76 4 98 23 131 26 47 27 63 6 93 -14 20 -22
22 -107 20 -51 -1 -114 -3 -142 -5z m141 -95 c4 -4 2 -13 -4 -20 -14 -17 9
-219 30 -268 9 -19 31 -51 51 -71 19 -20 37 -44 38 -54 5 -21 14 -26 89 -53
155 -56 216 -55 341 9 20 11 44 19 52 19 9 0 19 10 22 23 4 12 18 33 30 47 36
39 75 120 75 155 0 18 7 38 15 45 11 9 13 16 5 24 -5 5 -10 26 -10 46 0 30 5
39 26 49 22 10 24 14 13 27 -20 25 8 36 75 30 32 -4 74 -6 93 -6 27 0 35 -5
43 -26 8 -21 15 -25 42 -22 31 3 34 1 47 -44 8 -27 20 -48 28 -48 7 0 15 -10
18 -22 19 -77 26 -911 10 -1105 -6 -61 -10 -74 -31 -88 -15 -9 -24 -25 -24
-40 0 -67 -97 -94 -350 -99 -64 -1 -120 -5 -125 -8 -6 -3 -129 -4 -275 -2
-343 5 -524 14 -600 29 -36 7 -90 50 -90 70 0 6 -11 21 -24 32 -20 18 -25 34
-32 114 -9 105 -10 130 -12 209 -2 51 -4 56 -32 68 -16 7 -32 22 -35 33 -13
39 -47 51 -137 46 -49 -3 -82 -9 -81 -15 3 -12 -45 -33 -73 -33 -25 1 -55 1
-77 0 -23 0 -47 19 -47 37 0 7 -10 16 -22 19 -37 12 -68 46 -68 76 0 15 -5 31
-10 34 -7 4 -8 24 -4 53 6 37 16 55 51 89 24 24 55 51 69 60 31 20 119 23 156
6 15 -7 38 -13 51 -13 13 0 35 -9 49 -19 16 -13 29 -17 39 -10 8 5 25 9 37 9
15 0 42 18 72 48 l48 47 11 95 c6 52 13 130 15 173 3 54 11 90 26 120 31 60
92 112 143 124 49 11 242 11 253 1z"/>
<path d="M1257 2264 c-8 -8 3 -34 14 -34 5 0 9 9 9 20 0 19 -11 26 -23 14z"/>
<path d="M1907 1530 c-8 -8 -28 -23 -46 -32 -44 -24 -74 -95 -74 -170 1 -99
65 -177 172 -209 36 -11 50 -10 95 4 62 20 102 48 112 80 4 12 15 33 25 47 23
33 31 137 12 144 -8 3 -23 26 -34 52 -17 37 -30 50 -67 67 -62 28 -176 38
-195 17z m137 -61 c39 -11 64 -36 87 -83 23 -49 24 -73 2 -117 -51 -104 -178
-125 -254 -41 -29 31 -33 42 -33 96 -1 46 4 68 19 88 24 33 114 81 135 72 8
-3 28 -10 44 -15z"/>
<path d="M1956 1379 c-34 -27 -36 -81 -4 -103 74 -52 149 43 81 101 -32 28
-43 29 -77 2z"/>
<path d="M1290 1531 c-19 -3 -46 -13 -60 -21 -14 -9 -33 -20 -43 -25 -26 -14
-49 -79 -53 -148 -3 -46 1 -70 20 -110 13 -29 33 -56 44 -62 11 -5 34 -18 52
-28 46 -27 132 -34 149 -13 7 9 22 16 32 16 10 0 40 26 67 59 44 52 50 65 55
120 8 74 -2 97 -65 157 -59 56 -111 70 -198 55z m91 -56 c45 -16 94 -63 111
-105 27 -70 -32 -171 -111 -189 -62 -14 -115 4 -156 52 -30 34 -35 48 -35 89
0 71 29 112 105 148 22 10 41 19 41 19 1 1 21 -6 45 -14z"/>
<path d="M1303 1381 c-42 -35 -26 -106 27 -123 24 -8 70 20 72 45 3 44 -3 62
-25 79 -28 22 -46 22 -74 -1z"/>
<path d="M1535 1149 c-10 -15 18 -67 47 -89 78 -58 200 -20 210 64 l3 30 -128
1 c-71 1 -130 -2 -132 -6z"/>
<path d="M2860 2328 c-4 -48 -3 -1348 0 -1348 3 -1 169 -1 370 -2 l365 -1 3
63 c2 35 -1 66 -5 70 -4 5 -132 5 -283 1 -151 -4 -279 -4 -283 0 -8 6 -13 488
-5 493 2 1 118 -1 258 -5 140 -4 257 -5 260 -3 10 11 7 134 -4 135 -6 1 -125
2 -265 3 l-254 1 -1 222 c-1 143 3 223 9 223 6 1 135 0 288 0 l277 -1 0 76 0
75 -365 0 c-201 0 -365 -1 -365 -2z"/>
<path d="M7469 2323 c0 -4 0 -278 1 -609 1 -440 5 -610 13 -635 34 -94 100
-134 207 -126 36 3 87 11 113 18 l48 12 -3 56 -3 56 -44 3 c-24 2 -56 -2 -71
-8 -38 -16 -84 8 -99 52 -9 24 -11 196 -10 608 l1 575 -76 3 c-42 2 -76 -1
-77 -5z"/>
<path d="M6936 2165 c-11 -8 -32 -15 -46 -15 -14 0 -35 -6 -46 -14 -17 -13
-19 -25 -16 -111 l4 -96 -79 3 -78 3 0 -70 0 -70 78 3 77 3 0 -348 c0 -292 2
-352 15 -369 8 -10 15 -28 15 -39 0 -27 52 -72 98 -86 46 -13 185 -7 232 11
19 7 47 17 63 23 32 11 36 41 10 99 -18 40 -31 46 -51 26 -7 -7 -39 -18 -72
-25 -70 -14 -106 -4 -139 38 -19 25 -20 41 -21 345 l-2 319 134 0 133 0 0 70
0 70 -132 -2 c-101 -2 -133 0 -134 10 0 6 0 63 1 125 2 119 -3 128 -44 97z"/>
<path d="M5060 1946 c-159 -24 -260 -118 -314 -295 -23 -76 -23 -326 0 -396
41 -123 107 -213 185 -252 104 -51 121 -55 225 -50 115 5 203 27 274 69 8 5
23 11 33 14 19 7 23 34 6 51 -6 6 -16 21 -23 34 -16 32 -44 48 -55 31 -28 -46
-159 -74 -274 -59 l-82 11 -60 61 c-48 49 -63 72 -78 120 -9 33 -17 80 -17
105 l0 45 313 0 312 0 3 119 c3 121 -8 177 -51 259 -32 62 -117 119 -201 135
-69 14 -94 14 -196 -2z m151 -122 c46 -8 108 -62 127 -111 8 -21 17 -66 19
-100 l5 -63 -242 0 -242 0 5 43 c9 85 54 162 117 202 49 31 130 42 211 29z"/>
<path d="M6125 1951 c-11 -5 -30 -10 -43 -10 -27 -1 -129 -65 -155 -98 -10
-13 -27 -23 -37 -23 -16 0 -19 9 -22 58 l-3 57 -57 3 -58 3 0 -486 0 -486 76
3 77 3 -2 332 -2 333 35 52 c19 29 58 71 87 93 50 38 53 39 133 38 100 0 145
-23 174 -86 37 -79 44 -166 40 -470 -3 -330 -13 -301 97 -295 l60 3 -3 330
c-1 182 -8 359 -13 395 -15 86 -43 145 -95 196 -39 38 -48 42 -111 48 -37 3
-88 8 -113 11 -25 3 -54 1 -65 -4z"/>
<path d="M3740 1927 c0 -8 11 -34 25 -58 14 -24 27 -51 31 -59 3 -8 12 -30 19
-48 8 -18 21 -47 28 -65 7 -17 22 -50 31 -72 17 -37 25 -55 59 -138 24 -56 48
-111 63 -140 8 -16 14 -37 14 -47 0 -9 7 -23 15 -30 8 -7 15 -23 15 -35 0 -12
7 -28 15 -35 8 -7 15 -20 15 -29 0 -10 7 -26 15 -37 8 -10 15 -28 15 -39 0
-11 7 -29 15 -39 8 -11 15 -28 15 -38 0 -34 30 -68 60 -68 30 0 60 34 60 68 0
10 7 27 15 38 8 10 15 27 15 36 0 9 6 29 14 45 8 15 21 44 29 63 8 19 22 52
31 73 9 20 23 54 32 75 9 20 23 53 31 72 8 19 21 48 29 63 8 16 14 35 14 42 0
7 6 26 14 42 14 27 32 68 60 135 28 66 49 113 57 128 5 8 14 26 19 40 6 14 15
33 20 42 6 10 10 20 10 23 0 3 -38 5 -85 5 l-84 0 -21 -46 c-11 -26 -20 -54
-20 -63 0 -9 -7 -25 -15 -35 -8 -11 -15 -28 -15 -37 0 -10 -6 -30 -14 -46 -8
-15 -22 -48 -31 -73 -10 -25 -23 -57 -31 -72 -8 -14 -14 -34 -14 -45 0 -10 -7
-27 -15 -37 -8 -11 -15 -29 -15 -40 0 -12 -7 -30 -15 -40 -8 -11 -15 -31 -15
-44 0 -14 -4 -41 -10 -61 -5 -20 -12 -53 -15 -73 -3 -22 -12 -38 -19 -38 -15
0 -46 84 -46 124 0 14 -7 42 -16 63 -32 76 -42 99 -59 143 -22 57 -44 107 -61
143 -8 16 -14 35 -14 42 0 7 -8 28 -17 47 -9 18 -22 45 -30 60 -7 14 -13 32
-13 39 0 7 -8 30 -17 50 l-18 38 -87 1 c-67 0 -88 -3 -88 -13z"/>
<path d="M7880 1925 c0 -8 5 -15 10 -15 6 0 10 -5 10 -11 0 -7 10 -33 21 -58
12 -25 28 -61 35 -78 34 -82 47 -110 60 -136 8 -16 14 -36 14 -46 0 -9 7 -26
15 -37 8 -10 15 -29 15 -40 0 -12 7 -27 15 -34 8 -7 15 -21 15 -30 0 -10 7
-32 15 -49 8 -17 22 -45 30 -62 8 -17 15 -37 15 -44 0 -7 7 -27 15 -44 8 -17
22 -45 30 -62 8 -17 15 -37 15 -44 0 -7 8 -28 17 -47 9 -18 22 -45 30 -60 18
-36 16 -100 -4 -140 -9 -18 -23 -46 -31 -63 -36 -73 -96 -113 -144 -96 -39 14
-44 10 -51 -41 -4 -24 -9 -55 -13 -69 -5 -24 -2 -28 26 -34 43 -9 149 4 178
23 29 19 101 115 123 162 34 75 47 107 61 145 29 79 40 110 45 135 3 14 12 34
19 45 8 11 14 31 14 45 0 14 7 34 15 44 8 11 15 31 15 45 0 14 7 35 15 45 8
11 15 31 15 45 0 14 7 35 15 45 8 11 15 32 15 46 0 14 7 35 15 46 8 10 15 29
15 41 0 12 6 37 14 55 17 42 35 94 46 133 16 56 36 111 74 198 9 21 16 42 16
48 0 6 -32 9 -82 7 -79 -3 -83 -4 -89 -28 -12 -43 -41 -143 -54 -185 -7 -22
-20 -67 -30 -100 -9 -33 -22 -71 -27 -85 -6 -14 -14 -41 -18 -60 -5 -19 -13
-48 -18 -65 -26 -75 -42 -140 -42 -175 0 -38 -22 -104 -39 -114 -15 -9 -29 16
-34 64 -9 75 -34 163 -63 223 -8 16 -14 36 -14 46 0 9 -7 26 -15 37 -8 10 -15
28 -15 40 0 11 -7 29 -15 40 -8 10 -15 28 -15 39 0 11 -6 29 -14 40 -7 11 -16
31 -19 45 -3 14 -15 50 -27 80 -12 30 -25 69 -29 85 -18 72 -23 75 -121 75
-73 0 -90 -3 -90 -15z"/>
</g>
</svg>
